<?xml version="1.0" encoding="UTF-8"?>
<!DOCTYPE svg PUBLIC "-//W3C//DTD SVG 1.1//EN" "http://www.w3.org/Graphics/SVG/1.1/DTD/svg11.dtd">
<!-- Creator: CorelDRAW 2019 (64-Bit) -->
<svg xmlns="http://www.w3.org/2000/svg" xml:space="preserve" width="837px" height="240px" version="1.1" style="shape-rendering:geometricPrecision; text-rendering:geometricPrecision; image-rendering:optimizeQuality; fill-rule:evenodd; clip-rule:evenodd"
viewBox="0 0 837 240.11"
 xmlns:xlink="http://www.w3.org/1999/xlink"
 xmlns:xodm="http://www.corel.com/coreldraw/odm/2003">
 <defs>
  <style type="text/css">
   <![CDATA[
    .fil0 {fill:#0061AE;fill-rule:nonzero}
    .fil1 {fill:url(#id0)}
   ]]>
  </style>
  <linearGradient id="id0" gradientUnits="userSpaceOnUse" x1="356.3" y1="147.76" x2="804.61" y2="-37.77">
   <stop offset="0" style="stop-opacity:1; stop-color:#F6AD02"/>
   <stop offset="0.2" style="stop-opacity:1; stop-color:#FFF000"/>
   <stop offset="0.411765" style="stop-opacity:1; stop-color:#F6AD02"/>
   <stop offset="0.658824" style="stop-opacity:1; stop-color:#FFF000"/>
   <stop offset="0.788235" style="stop-opacity:1; stop-color:#F6AD02"/>
   <stop offset="1" style="stop-opacity:1; stop-color:#FFF000"/>
  </linearGradient>
 </defs>
 <g id="Layer_x0020_1">
  <metadata id="CorelCorpID_0Corel-Layer"/>
  <path class="fil0" d="M621.06 136.86l29.18 0 0 100.34 -29.18 0 0 -100.34zm-71.82 100.34l0 -69.19c0,-5.67 -0.1,-11.1 -0.3,-16.33 -0.2,-5.2 -0.46,-10.13 -0.86,-14.82l26.75 0 1.06 17.95c2.54,-6.16 6.6,-10.82 12.16,-13.99 5.53,-3.16 12.46,-4.73 20.72,-4.73l0.87 0 -0.1 26.35c-1.77,-0.13 -3.06,-0.23 -3.93,-0.3 -0.9,-0.07 -1.7,-0.1 -2.4,-0.1 -7.63,0 -13.59,1.87 -17.89,5.57 -4.33,3.69 -6.49,8.86 -6.49,15.42l0 54.17 -29.59 0zm-44.12 -100.34l29.18 0 0 100.34 -29.18 0 0 -100.34zm-47.29 100.34l-0.96 -14.33c-3.6,5.4 -7.93,9.47 -12.99,12.2 -5.07,2.73 -10.79,4.1 -17.19,4.1 -12.16,0 -22.02,-4.77 -29.62,-14.3 -7.56,-9.53 -11.36,-22.15 -11.36,-37.81 0,-15.76 3.7,-28.38 11.13,-37.85 7.43,-9.45 17.25,-14.19 29.48,-14.19 6.63,0 12.43,1.3 17.36,3.87 4.96,2.56 9.22,6.49 12.79,11.76l0 -57.4 28.98 0 0 123.76c0,5.06 0.07,9.19 0.23,12.33 0.17,3.16 0.44,5.79 0.74,7.86l-28.59 0zm-42.54 -49.97c0,10.36 1.8,18.39 5.37,24.08 3.56,5.7 8.59,8.53 15.02,8.53 6.56,0 11.8,-2.9 15.63,-8.73 3.83,-5.83 5.76,-13.79 5.76,-23.88 0,-10.13 -1.93,-18.16 -5.76,-23.99 -3.83,-5.86 -9.07,-8.79 -15.63,-8.79 -6.43,0 -11.46,2.86 -15.02,8.63 -3.57,5.76 -5.37,13.82 -5.37,24.15zm-137.91 49.97l0 -81.09c0,-2.86 -0.06,-5.86 -0.23,-8.99 -0.17,-3.13 -0.43,-6.56 -0.73,-10.26l27.78 0 0.6 15.05c3.76,-6.06 8.26,-10.49 13.43,-13.29 5.16,-2.8 11.49,-4.2 18.98,-4.2 11.06,0 19.26,3.14 24.62,9.43 5.36,6.26 8.06,15.86 8.06,28.75l0 64.6 -28.68 0 0 -60.6c0,-7.5 -1.3,-12.86 -3.87,-16.12 -2.56,-3.24 -6.72,-4.87 -12.52,-4.87 -5.6,0 -10.13,1.8 -13.53,5.43 -3.43,3.6 -5.13,8.4 -5.13,14.39l0 61.77 -28.78 0zm-276.61 0l0 -81.09c0,-3.6 -0.07,-6.96 -0.2,-10.12 -0.14,-3.17 -0.34,-6.2 -0.57,-9.13l27.62 0 0.76 15.05c3.77,-6.06 8.23,-10.49 13.43,-13.29 5.16,-2.8 11.49,-4.2 18.95,-4.2 7.57,0 13.93,1.67 19.16,5.04 5.19,3.36 8.99,8.22 11.39,14.59 3.27,-6.77 7.53,-11.73 12.79,-14.9 5.27,-3.16 11.93,-4.73 20.02,-4.73 11.07,0 19.29,3.14 24.69,9.43 5.4,6.26 8.09,15.86 8.09,28.75l0 64.6 -28.98 0 0 -60.6c0,-7.5 -1.3,-12.86 -3.86,-16.12 -2.57,-3.24 -6.73,-4.87 -12.53,-4.87 -5.59,0 -10.09,1.8 -13.42,5.43 -3.37,3.6 -5.03,8.4 -5.03,14.39l0 61.77 -28.99 0 0 -60.6c0,-7.43 -1.26,-12.76 -3.79,-16.06 -2.54,-3.3 -6.63,-4.93 -12.3,-4.93 -5.59,0 -10.02,1.8 -13.32,5.37 -3.3,3.59 -4.93,8.39 -4.93,14.45l0 61.77 -28.98 0zm234.55 -10.48c-5.85,5.1 -17.28,10.58 -25.15,12.35 -3.01,0.7 -6.3,1.04 -9.86,1.04 -8.43,0 -15.48,-2.97 -21.17,-8.89 -5.68,-5.94 -8.51,-13.51 -8.51,-22.71 0,-7.39 1.45,-13.39 4.34,-18.05 2.91,-4.69 7,-8.37 12.31,-11.06 5.25,-2.67 11.8,-4.6 19.58,-5.74 7.79,-1.13 15.87,-1.99 24.22,-2.51l0 -0.55c0,-24 -34.22,-21.01 -48.86,-10.75l-5.06 -18.91c11.43,-5.37 22.69,-8.09 36.68,-8.09 24.53,0 45.25,11.76 45.25,39.87l0 64.69 -23.77 0 0 -10.69zm-2.3 -19.58l0 -19.35c-4.42,0.43 -9.24,1 -14.41,1.71 -5.17,0.74 -9.09,1.59 -11.77,2.55 -3.27,1.16 -5.79,2.9 -7.5,5.13 -1.74,2.27 -2.61,5.21 -2.61,8.89 0,25.41 29.67,17.16 36.29,1.07z"/>
  <path class="fil1" d="M323.91 72.94c8.95,10 25.61,37.13 45.33,35.45 46.21,-3.92 72.52,-53.89 129.57,-50.32 23.43,1.46 34.47,40.77 57.71,44.16 36.62,5.33 71.72,-50.99 131.41,-47.76 24.55,1.33 34.69,42.57 59.15,44.95 22.81,2.22 58.53,-30.11 89.92,-46.87 -7.99,-13.47 -22.85,-34.49 -38.66,-35.55 -31.13,-2.1 -56.03,37.67 -83.41,30.73 -15.93,-4.04 -34.09,-47.82 -60.34,-47.73 -48.59,0.16 -82.12,48.27 -125.09,52.07 -24.37,2.16 -36.1,-52.06 -68.74,-47.08 -44.68,6.82 -90.34,43.64 -136.85,67.95z"/>
 </g>
</svg>
